<mxfile host="app.diagrams.net" modified="2021-03-26T11:21:32.988Z" agent="5.0 (Windows NT 10.0; Win64; x64) AppleWebKit/537.36 (KHTML, like Gecko) Chrome/89.0.4389.90 Safari/537.36" etag="2q_7xKT_wBIFVY-7iFJn" version="14.4.9" type="github">
  <diagram name="Page-1" id="97916047-d0de-89f5-080d-49f4d83e522f">
    <mxGraphModel dx="2844" dy="1524" grid="1" gridSize="10" guides="1" tooltips="1" connect="1" arrows="1" fold="1" page="1" pageScale="1.5" pageWidth="827" pageHeight="1169" background="#ffffff" math="0" shadow="0">
      <root>
        <mxCell id="0" />
        <mxCell id="1" parent="0" />
        <mxCell id="IP3I_rZ0EiLL6fIdU2Rg-56" value="&lt;font style=&quot;font-size: 23px&quot;&gt;&lt;b&gt;App&lt;/b&gt;&lt;/font&gt;" style="rounded=1;whiteSpace=wrap;html=1;" parent="1" vertex="1">
          <mxGeometry x="550" y="20" width="320" height="80" as="geometry" />
        </mxCell>
        <mxCell id="IP3I_rZ0EiLL6fIdU2Rg-58" value="&lt;span style=&quot;font-size: 23px&quot;&gt;&lt;b&gt;Components&lt;/b&gt;&lt;/span&gt;" style="rounded=1;whiteSpace=wrap;html=1;" parent="1" vertex="1">
          <mxGeometry x="140" y="140" width="280" height="80" as="geometry" />
        </mxCell>
        <mxCell id="IP3I_rZ0EiLL6fIdU2Rg-59" value="&lt;font style=&quot;font-size: 23px&quot;&gt;&lt;b&gt;Share&lt;/b&gt;&lt;/font&gt;" style="rounded=1;whiteSpace=wrap;html=1;" parent="1" vertex="1">
          <mxGeometry x="520" y="140" width="283" height="80" as="geometry" />
        </mxCell>
        <mxCell id="IP3I_rZ0EiLL6fIdU2Rg-60" value="&lt;span style=&quot;font-size: 23px&quot;&gt;&lt;b&gt;Models&lt;/b&gt;&lt;/span&gt;" style="rounded=1;whiteSpace=wrap;html=1;" parent="1" vertex="1">
          <mxGeometry x="521.5" y="370" width="280" height="80" as="geometry" />
        </mxCell>
        <mxCell id="IP3I_rZ0EiLL6fIdU2Rg-61" value="&lt;font style=&quot;font-size: 23px&quot;&gt;&lt;b&gt;Services&lt;/b&gt;&lt;/font&gt;" style="rounded=1;whiteSpace=wrap;html=1;" parent="1" vertex="1">
          <mxGeometry x="520" y="248" width="280" height="80" as="geometry" />
        </mxCell>
        <mxCell id="IP3I_rZ0EiLL6fIdU2Rg-62" value="&lt;span style=&quot;font-size: 23px&quot;&gt;&lt;b&gt;Materials&lt;/b&gt;&lt;/span&gt;" style="rounded=1;whiteSpace=wrap;html=1;" parent="1" vertex="1">
          <mxGeometry x="518.5" y="490" width="283" height="80" as="geometry" />
        </mxCell>
        <mxCell id="IP3I_rZ0EiLL6fIdU2Rg-63" value="&lt;span style=&quot;font-size: 23px&quot;&gt;&lt;b&gt;store.module&lt;/b&gt;&lt;/span&gt;" style="rounded=1;whiteSpace=wrap;html=1;" parent="1" vertex="1">
          <mxGeometry x="860" y="750" width="283" height="80" as="geometry" />
        </mxCell>
        <mxCell id="IP3I_rZ0EiLL6fIdU2Rg-64" value="&lt;span style=&quot;font-size: 23px&quot;&gt;&lt;b&gt;routing.module&lt;/b&gt;&lt;/span&gt;" style="rounded=1;whiteSpace=wrap;html=1;" parent="1" vertex="1">
          <mxGeometry x="1360" y="755" width="283" height="80" as="geometry" />
        </mxCell>
        <mxCell id="IP3I_rZ0EiLL6fIdU2Rg-82" value="&lt;span style=&quot;font-size: 23px&quot;&gt;&lt;b&gt;Nav Bar&lt;/b&gt;&lt;/span&gt;" style="rounded=1;whiteSpace=wrap;html=1;verticalAlign=top;fillColor=#f5f5f5;strokeColor=#666666;fontColor=#333333;" parent="1" vertex="1">
          <mxGeometry x="156" y="260" width="244" height="120" as="geometry" />
        </mxCell>
        <mxCell id="IP3I_rZ0EiLL6fIdU2Rg-83" value="&lt;span style=&quot;font-size: 23px&quot;&gt;&lt;b&gt;footer&lt;/b&gt;&lt;/span&gt;" style="rounded=1;whiteSpace=wrap;html=1;fillColor=#f5f5f5;strokeColor=#666666;fontColor=#333333;" parent="1" vertex="1">
          <mxGeometry x="171" y="328" width="218.5" height="30" as="geometry" />
        </mxCell>
        <mxCell id="IP3I_rZ0EiLL6fIdU2Rg-65" value="&lt;span style=&quot;font-size: 23px&quot;&gt;&lt;b&gt;Start Page&lt;/b&gt;&lt;/span&gt;" style="rounded=1;whiteSpace=wrap;html=1;verticalAlign=top;" parent="1" vertex="1">
          <mxGeometry x="156" y="410" width="240" height="140" as="geometry" />
        </mxCell>
        <mxCell id="IP3I_rZ0EiLL6fIdU2Rg-66" value="&lt;span style=&quot;font-size: 23px&quot;&gt;&lt;b&gt;Cards&lt;/b&gt;&lt;/span&gt;" style="rounded=1;whiteSpace=wrap;html=1;verticalAlign=top;" parent="1" vertex="1">
          <mxGeometry x="156" y="580" width="240" height="120" as="geometry" />
        </mxCell>
        <mxCell id="IP3I_rZ0EiLL6fIdU2Rg-67" value="&lt;span style=&quot;font-size: 23px&quot;&gt;&lt;b&gt;Profile&lt;/b&gt;&lt;/span&gt;" style="rounded=1;whiteSpace=wrap;html=1;verticalAlign=top;" parent="1" vertex="1">
          <mxGeometry x="156" y="740" width="240" height="300" as="geometry" />
        </mxCell>
        <mxCell id="IP3I_rZ0EiLL6fIdU2Rg-68" value="&lt;span style=&quot;font-size: 23px&quot;&gt;&lt;b&gt;Card item&lt;/b&gt;&lt;/span&gt;" style="rounded=1;whiteSpace=wrap;html=1;" parent="1" vertex="1">
          <mxGeometry x="176" y="630" width="200" height="40" as="geometry" />
        </mxCell>
        <mxCell id="IP3I_rZ0EiLL6fIdU2Rg-69" value="&lt;span style=&quot;font-size: 23px&quot;&gt;&lt;b&gt;User Set&lt;/b&gt;&lt;/span&gt;" style="rounded=1;whiteSpace=wrap;html=1;" parent="1" vertex="1">
          <mxGeometry x="178" y="780" width="200" height="30" as="geometry" />
        </mxCell>
        <mxCell id="IP3I_rZ0EiLL6fIdU2Rg-70" value="&lt;span style=&quot;font-size: 23px&quot;&gt;&lt;b&gt;Word Set&lt;/b&gt;&lt;/span&gt;" style="rounded=1;whiteSpace=wrap;html=1;" parent="1" vertex="1">
          <mxGeometry x="178" y="820" width="200" height="40" as="geometry" />
        </mxCell>
        <mxCell id="IP3I_rZ0EiLL6fIdU2Rg-71" value="&lt;span style=&quot;font-size: 23px&quot;&gt;&lt;b&gt;Games List&lt;/b&gt;&lt;/span&gt;" style="rounded=1;whiteSpace=wrap;html=1;verticalAlign=top;" parent="1" vertex="1">
          <mxGeometry x="156" y="1060" width="240" height="210" as="geometry" />
        </mxCell>
        <mxCell id="IP3I_rZ0EiLL6fIdU2Rg-72" value="&lt;font style=&quot;font-size: 23px&quot;&gt;Savanna&lt;/font&gt;" style="rounded=1;whiteSpace=wrap;html=1;fontSize=20;fontStyle=1" parent="1" vertex="1">
          <mxGeometry x="178" y="1100" width="200" height="30" as="geometry" />
        </mxCell>
        <mxCell id="IP3I_rZ0EiLL6fIdU2Rg-73" value="&lt;b style=&quot;font-size: 23px&quot;&gt;Audio&lt;/b&gt;" style="rounded=1;whiteSpace=wrap;html=1;" parent="1" vertex="1">
          <mxGeometry x="178" y="1140" width="200" height="30" as="geometry" />
        </mxCell>
        <mxCell id="IP3I_rZ0EiLL6fIdU2Rg-74" value="&lt;b style=&quot;font-size: 23px&quot;&gt;Sprint&lt;/b&gt;" style="rounded=1;whiteSpace=wrap;html=1;" parent="1" vertex="1">
          <mxGeometry x="178" y="1180" width="200" height="30" as="geometry" />
        </mxCell>
        <mxCell id="IP3I_rZ0EiLL6fIdU2Rg-75" value="&lt;span style=&quot;font-size: 23px&quot;&gt;&lt;b&gt;My Game&lt;/b&gt;&lt;/span&gt;" style="rounded=1;whiteSpace=wrap;html=1;" parent="1" vertex="1">
          <mxGeometry x="180" y="1220" width="200" height="30" as="geometry" />
        </mxCell>
        <mxCell id="IP3I_rZ0EiLL6fIdU2Rg-77" value="&lt;span style=&quot;font-size: 23px&quot;&gt;&lt;b&gt;Statistics&lt;/b&gt;&lt;/span&gt;" style="rounded=1;whiteSpace=wrap;html=1;verticalAlign=top;" parent="1" vertex="1">
          <mxGeometry x="171" y="887" width="210" height="130" as="geometry" />
        </mxCell>
        <mxCell id="IP3I_rZ0EiLL6fIdU2Rg-78" value="&lt;span style=&quot;font-size: 23px&quot;&gt;&lt;b&gt;Short&lt;/b&gt;&lt;/span&gt;" style="rounded=1;whiteSpace=wrap;html=1;" parent="1" vertex="1">
          <mxGeometry x="176" y="927" width="200" height="30" as="geometry" />
        </mxCell>
        <mxCell id="IP3I_rZ0EiLL6fIdU2Rg-79" value="&lt;span style=&quot;font-size: 23px&quot;&gt;&lt;b&gt;Long&lt;/b&gt;&lt;/span&gt;" style="rounded=1;whiteSpace=wrap;html=1;" parent="1" vertex="1">
          <mxGeometry x="176" y="967" width="200" height="30" as="geometry" />
        </mxCell>
        <mxCell id="IP3I_rZ0EiLL6fIdU2Rg-80" value="&lt;span style=&quot;font-size: 23px&quot;&gt;&lt;b&gt;Sign in&lt;/b&gt;&lt;/span&gt;" style="rounded=1;whiteSpace=wrap;html=1;" parent="1" vertex="1">
          <mxGeometry x="171" y="460" width="210" height="30" as="geometry" />
        </mxCell>
        <mxCell id="IP3I_rZ0EiLL6fIdU2Rg-81" value="&lt;span style=&quot;font-size: 23px&quot;&gt;&lt;b&gt;Sign up&lt;/b&gt;&lt;/span&gt;" style="rounded=1;whiteSpace=wrap;html=1;" parent="1" vertex="1">
          <mxGeometry x="171" y="495" width="210" height="30" as="geometry" />
        </mxCell>
        <mxCell id="IP3I_rZ0EiLL6fIdU2Rg-85" value="&lt;span style=&quot;font-size: 23px&quot;&gt;&lt;b&gt;About Us&lt;/b&gt;&lt;/span&gt;" style="rounded=1;whiteSpace=wrap;html=1;verticalAlign=top;" parent="1" vertex="1">
          <mxGeometry x="156" y="1500" width="240" height="40" as="geometry" />
        </mxCell>
        <mxCell id="IP3I_rZ0EiLL6fIdU2Rg-87" value="&lt;span style=&quot;font-size: 23px&quot;&gt;&lt;b&gt;Dictionary&lt;/b&gt;&lt;/span&gt;" style="rounded=1;whiteSpace=wrap;html=1;verticalAlign=top;" parent="1" vertex="1">
          <mxGeometry x="160" y="1300" width="240" height="170" as="geometry" />
        </mxCell>
        <mxCell id="IP3I_rZ0EiLL6fIdU2Rg-88" value="&lt;span style=&quot;font-size: 23px&quot;&gt;&lt;b&gt;Current&lt;/b&gt;&lt;/span&gt;" style="rounded=1;whiteSpace=wrap;html=1;" parent="1" vertex="1">
          <mxGeometry x="182.75" y="1340" width="200" height="30" as="geometry" />
        </mxCell>
        <mxCell id="IP3I_rZ0EiLL6fIdU2Rg-89" value="&lt;span style=&quot;font-size: 23px&quot;&gt;&lt;b&gt;Difficult&lt;/b&gt;&lt;/span&gt;" style="rounded=1;whiteSpace=wrap;html=1;" parent="1" vertex="1">
          <mxGeometry x="182.75" y="1380" width="200" height="30" as="geometry" />
        </mxCell>
        <mxCell id="IP3I_rZ0EiLL6fIdU2Rg-90" value="&lt;span style=&quot;font-size: 23px&quot;&gt;&lt;b&gt;Deleted&lt;/b&gt;&lt;/span&gt;" style="rounded=1;whiteSpace=wrap;html=1;" parent="1" vertex="1">
          <mxGeometry x="182.75" y="1420" width="200" height="30" as="geometry" />
        </mxCell>
        <mxCell id="IP3I_rZ0EiLL6fIdU2Rg-92" style="edgeStyle=orthogonalEdgeStyle;rounded=0;orthogonalLoop=1;jettySize=auto;html=1;exitX=0.5;exitY=1;exitDx=0;exitDy=0;fontSize=20;" parent="1" source="IP3I_rZ0EiLL6fIdU2Rg-82" target="IP3I_rZ0EiLL6fIdU2Rg-82" edge="1">
          <mxGeometry relative="1" as="geometry" />
        </mxCell>
        <mxCell id="Zw5l3AUjMkY7q7uzvpeW-5" value="&lt;span style=&quot;font-size: 23px&quot;&gt;&lt;b&gt;Core&lt;/b&gt;&lt;/span&gt;" style="rounded=1;whiteSpace=wrap;html=1;" vertex="1" parent="1">
          <mxGeometry x="870" y="140" width="283" height="80" as="geometry" />
        </mxCell>
      </root>
    </mxGraphModel>
  </diagram>
</mxfile>
